<?xml version="1.0" encoding="utf-8"?>
<!-- Generator: Adobe Illustrator 24.0.1, SVG Export Plug-In . SVG Version: 6.00 Build 0)  -->
<svg version="1.1" id="Layer_1" xmlns="http://www.w3.org/2000/svg" xmlns:xlink="http://www.w3.org/1999/xlink" x="0px" y="0px"
	 viewBox="0 0 612 334.6" style="enable-background:new 0 0 612 334.6;" xml:space="preserve">
<style type="text/css">
	.st0{fill:#FFFFFF;}
	.st1{fill:#231F20;}
	.st2{fill:none;stroke:#231F20;stroke-width:1.0527;stroke-miterlimit:10;}
	.st3{fill:none;stroke:#000000;stroke-width:2.5;stroke-linejoin:round;}
	.st4{fill:#0505C4;}
	.st5{font-family:'Orbitron-Bold';}
	.st6{font-size:61.6284px;}
	.st7{font-family:'Roboto-Bold';}
	.st8{font-size:33.1199px;}
	.st9{letter-spacing:3;}
</style>
<polygon class="st4" points="312.1,124.1 274.5,102.4 270.7,108.9 308.4,130.5 312.1,124.1 "/>
<polygon class="st4" points="270.9,189.3 274.6,195.7 312.2,173.9 308.5,167.5 270.9,189.3 "/>
<polygon class="st4" points="231.3,127.4 231.4,170.8 238.8,170.8 238.7,127.4 231.3,127.4 "/>
<path class="st4" d="M495.6,202.8c-1.5-4.6-4.7-8.3-9-10.5c-4.3-2.2-9.2-2.5-13.8-1c-2.8,0.9-5.2,2.4-7.2,4.5l-21.1-12.2
	c1-3.4,0.9-7-0.2-10.5c-1.5-4.6-4.7-8.3-9-10.5c-1.2-0.6-2.4-1-3.6-1.4l-0.1-44.5l-51.3-29.5l-0.1-39.4c0.4-0.1,0.7-0.2,1.1-0.3
	c9.5-3.1,14.6-13.3,11.5-22.8c-3.1-9.5-13.3-14.6-22.8-11.5c-9.5,3.1-14.6,13.3-11.5,22.8c2,6.1,6.9,10.4,12.7,11.9l0.1,39.2
	l-46.9,27.2l-51.6-29.7l-51.3,29.7L188.1,95c1.1-3.5,1.1-7.3-0.1-11v0c-3.1-9.5-13.3-14.6-22.8-11.5c-4.6,1.5-8.3,4.7-10.5,9
	c-2.2,4.3-2.5,9.2-1,13.8c2.5,7.6,9.6,12.4,17.2,12.4c1.9,0,3.8-0.3,5.6-0.9c2.6-0.9,4.9-2.3,6.8-4.1l33.3,19.2l0.1,54.2l-33.4,19.3
	c-4.7-4.4-11.6-6.3-18.1-4.1c-4.6,1.5-8.3,4.7-10.5,9c-2.2,4.3-2.5,9.2-1,13.8c1.5,4.6,4.7,8.3,9,10.5c2.6,1.3,5.3,2,8.1,2
	c1.9,0,3.8-0.3,5.7-0.9c9.4-3.1,14.5-13.1,11.6-22.5l33-19.1l51.6,29.7l56-32.4l-0.1-59.3l46.9-27.1l46.9,27l0.1,39.3
	c-0.4,0.1-0.7,0.2-1.1,0.3c-4.6,1.5-8.3,4.7-10.5,9c-2.2,4.3-2.5,9.2-1,13.8c2.5,7.6,9.6,12.4,17.2,12.4c1.9,0,3.8-0.3,5.6-0.9
	c2.8-0.9,5.2-2.4,7.2-4.5l21.1,12.2c-1,3.4-0.9,7,0.2,10.5c2.5,7.6,9.6,12.4,17.2,12.4c1.9,0,3.8-0.3,5.6-0.9
	C493.6,222.5,498.8,212.3,495.6,202.8L495.6,202.8z M173.7,98.2c-4.7,1.5-9.8-1-11.3-5.7c-1.5-4.7,1-9.8,5.7-11.3
	c0.9-0.3,1.9-0.4,2.8-0.4c3.8,0,7.3,2.4,8.5,6.2v0c0.4,1.1,0.5,2.3,0.4,3.4c-0.2,3.2-2.1,6.1-5.1,7.5
	C174.3,97.9,174,98.1,173.7,98.2L173.7,98.2z M173.7,217c-4.7,1.5-9.8-1-11.3-5.7c-0.7-2.3-0.6-4.7,0.5-6.9c1.1-2.1,2.9-3.7,5.2-4.5
	c0.9-0.3,1.9-0.4,2.8-0.4c1.4,0,2.7,0.3,3.9,0.9c2.1,1,3.9,2.9,4.7,5.3c0.2,0.8,0.4,1.5,0.4,2.3C180.1,211.9,177.6,215.7,173.7,217
	L173.7,217z M272.8,203.2l-46.9-27l-0.1-54.2l46.9-27.2l46.9,27l0.1,54.2L272.8,203.2L272.8,203.2z M371,38c-1.8-1.1-3.3-2.8-4-4.9
	c-1.5-4.7,1-9.8,5.7-11.3c0.9-0.3,1.9-0.4,2.8-0.4c3.8,0,7.3,2.4,8.5,6.2c1.3,4.1-0.4,8.4-4,10.5c-0.5,0.3-1.1,0.6-1.8,0.8
	C375.8,39.6,373.2,39.2,371,38L371,38z M429.9,187.2c-4.7,1.5-9.8-1-11.3-5.7c-1.3-4.1,0.4-8.4,4-10.5c0.5-0.3,1.1-0.6,1.8-0.8
	c0.9-0.3,1.9-0.5,2.8-0.5c1.4,0,2.8,0.3,4,1c0.2,0.1,0.3,0.2,0.5,0.3c1.9,1.1,3.3,2.8,4,4.9v0c0.3,0.9,0.4,1.8,0.4,2.7
	c0,1.4-0.3,2.8-1,4.1c-0.8,1.6-2.1,2.9-3.6,3.8C431,186.8,430.4,187,429.9,187.2L429.9,187.2z M481.3,217c-4.7,1.5-9.8-1-11.3-5.7
	c-0.3-0.9-0.4-1.8-0.4-2.7c0-1.4,0.3-2.8,1-4.1c0.8-1.6,2.1-2.9,3.6-3.8c0.5-0.3,1.1-0.5,1.6-0.7c0.9-0.3,1.9-0.5,2.8-0.5
	c1.4,0,2.8,0.3,4,1c2.1,1.1,3.7,2.9,4.5,5.2v0C488.6,210.4,486,215.5,481.3,217L481.3,217z"/>
<text transform="matrix(1 0 0 1 92.4478 298.1235)" class="st4 st5 st6">ADRENALINE</text>
<text transform="matrix(1 0 0 1 556.0583 277.2769)" class="st4 st7 st8 st9">™</text>
</svg>
