<?xml version="1.0" encoding="utf-8"?>
<!-- Generator: Adobe Illustrator 24.0.1, SVG Export Plug-In . SVG Version: 6.00 Build 0)  -->
<svg version="1.1" id="Layer_1" xmlns="http://www.w3.org/2000/svg" xmlns:xlink="http://www.w3.org/1999/xlink" x="0px" y="0px"
	 viewBox="0 0 612 334.6" style="enable-background:new 0 0 612 334.6;" xml:space="preserve">
<style type="text/css">
	.st0{fill:#FFFFFF;}
	.st1{fill:#231F20;}
	.st2{fill:none;stroke:#231F20;stroke-width:1.0527;stroke-miterlimit:10;}
	.st3{fill:none;stroke:#000000;stroke-width:2.5;stroke-linejoin:round;}
	.st4{fill:#0505C4;}
	.st5{font-family:'Orbitron-Bold';}
	.st6{font-size:46.4743px;}
	.st7{font-family:'Roboto-Bold';}
	.st8{font-size:33.1199px;}
	.st9{letter-spacing:3;}
</style>
<polygon points="295.4,120.9 257.7,99.3 254,105.7 291.7,127.4 295.4,120.9 "/>
<polygon points="252.2,189.3 255.9,195.7 293.5,173.9 289.8,167.5 252.2,189.3 "/>
<polygon points="211,127.4 211,170.8 218.5,170.8 218.4,127.4 211,127.4 "/>
<path d="M477,199.8c-1.5-4.6-4.7-8.3-9-10.5c-4.3-2.2-9.2-2.5-13.8-1c-2.8,0.9-5.2,2.4-7.2,4.5l-21.1-12.2c1-3.4,0.9-7-0.2-10.5
	c-1.5-4.6-4.7-8.3-9-10.5c-1.2-0.6-2.4-1-3.6-1.4l-0.1-44.5l-51.3-29.5l-0.1-39.4c0.4-0.1,0.7-0.2,1.1-0.3
	c9.5-3.1,14.6-13.3,11.5-22.8C371,12.1,360.7,7,351.3,10.1c-9.5,3.1-14.6,13.3-11.5,22.8c2,6.1,6.9,10.4,12.7,11.9l0.1,39.2
	l-46.9,27.2l-51.6-29.7l-51.3,29.7L169.4,92c1.1-3.5,1.1-7.3-0.1-11v0c-3.1-9.5-13.3-14.6-22.8-11.5c-4.6,1.5-8.3,4.7-10.5,9
	c-2.2,4.3-2.5,9.2-1,13.8c2.5,7.6,9.6,12.4,17.2,12.4c1.9,0,3.8-0.3,5.6-0.9c2.6-0.9,4.9-2.3,6.8-4.1l33.3,19.2l0.1,54.2l-33.4,19.3
	c-4.7-4.4-11.6-6.3-18.1-4.1c-4.6,1.5-8.3,4.7-10.5,9c-2.2,4.3-2.5,9.2-1,13.8c1.5,4.6,4.7,8.3,9,10.5c2.6,1.3,5.3,2,8.1,2
	c1.9,0,3.8-0.3,5.7-0.9c9.4-3.1,14.5-13.1,11.6-22.5l33-19.1l51.6,29.7l56-32.4l-0.1-59.3l46.9-27.1l46.9,27l0.1,39.3
	c-0.4,0.1-0.7,0.2-1.1,0.3c-4.6,1.5-8.3,4.7-10.5,9c-2.2,4.3-2.5,9.2-1,13.8c2.5,7.6,9.6,12.4,17.2,12.4c1.9,0,3.8-0.3,5.6-0.9
	c2.8-0.9,5.2-2.4,7.2-4.5l21.1,12.2c-1,3.4-0.9,7,0.2,10.5c2.5,7.6,9.6,12.4,17.2,12.4c1.9,0,3.8-0.3,5.6-0.9
	C474.9,219.5,480.1,209.3,477,199.8L477,199.8z M155,95.2c-4.7,1.5-9.8-1-11.3-5.7c-1.5-4.7,1-9.8,5.7-11.3c0.9-0.3,1.9-0.4,2.8-0.4
	c3.8,0,7.3,2.4,8.5,6.2v0c0.4,1.1,0.5,2.3,0.4,3.4c-0.2,3.2-2.1,6.1-5.1,7.5C155.7,94.9,155.3,95.1,155,95.2L155,95.2z M155,214
	c-4.7,1.5-9.8-1-11.3-5.7c-0.7-2.3-0.6-4.7,0.5-6.9c1.1-2.1,2.9-3.7,5.2-4.5c0.9-0.3,1.9-0.4,2.8-0.4c1.4,0,2.7,0.3,3.9,0.9
	c2.1,1,3.9,2.9,4.7,5.3c0.2,0.8,0.4,1.5,0.4,2.3C161.4,208.9,158.9,212.7,155,214L155,214z M254.1,200.2l-46.9-27l-0.1-54.2
	l46.9-27.2l46.9,27l0.1,54.2L254.1,200.2L254.1,200.2z M352.4,35c-1.8-1.1-3.3-2.8-4-4.9c-1.5-4.7,1-9.8,5.7-11.3
	c0.9-0.3,1.9-0.4,2.8-0.4c3.8,0,7.3,2.4,8.5,6.2c1.3,4.1-0.4,8.4-4,10.5c-0.5,0.3-1.1,0.6-1.8,0.8C357.2,36.6,354.5,36.2,352.4,35
	L352.4,35z M411.2,184.2c-4.7,1.5-9.8-1-11.3-5.7c-1.3-4.1,0.4-8.4,4-10.5c0.5-0.3,1.1-0.6,1.8-0.8c0.9-0.3,1.9-0.5,2.8-0.5
	c1.4,0,2.8,0.3,4,1c0.2,0.1,0.3,0.2,0.5,0.3c1.9,1.1,3.3,2.8,4,4.9v0c0.3,0.9,0.4,1.8,0.4,2.7c0,1.4-0.3,2.8-1,4.1
	c-0.8,1.6-2.1,2.9-3.6,3.8C412.3,183.8,411.8,184,411.2,184.2L411.2,184.2z M462.6,214c-4.7,1.5-9.8-1-11.3-5.7
	c-0.3-0.9-0.4-1.8-0.4-2.7c0-1.4,0.3-2.8,1-4.1c0.8-1.6,2.1-2.9,3.6-3.8c0.5-0.3,1.1-0.5,1.6-0.7c0.9-0.3,1.9-0.5,2.8-0.5
	c1.4,0,2.8,0.3,4,1c2.1,1.1,3.7,2.9,4.5,5.2v0C469.9,207.4,467.3,212.5,462.6,214L462.6,214z"/>
<text transform="matrix(1 0 0 1 123.9615 267.6835)"><tspan x="0" y="0" class="st5 st6">ADRENALINE </tspan><tspan x="52.6" y="55.8" class="st5 st6">PROJECT</tspan></text>
<text transform="matrix(1 0 0 1 477.8914 257.6581)" class="st7 st8 st9">™</text>
</svg>
